<svg width="15" height="15" viewBox="0 0 15 15" fill="none" xmlns="http://www.w3.org/2000/svg">
<path d="M11.9262 9.8125C10.7832 9.81225 9.65617 9.5441 8.6355 9.02957C7.61483 8.51504 6.72896 7.76846 6.04896 6.84971C5.36896 5.93096 4.91376 4.86562 4.71987 3.73916C4.52598 2.6127 4.5988 1.45648 4.9325 0.363251C3.82486 0.873793 2.86259 1.65338 2.13334 2.63097C1.40409 3.60857 0.93105 4.75311 0.757318 5.9603C0.583585 7.16749 0.714684 8.39897 1.13867 9.54254C1.56265 10.6861 2.26605 11.7054 3.18476 12.5076C4.10348 13.3097 5.20831 13.8692 6.3986 14.1352C7.58889 14.4011 8.8268 14.3649 9.99954 14.03C11.1723 13.6951 12.2426 13.072 13.1129 12.2176C13.9833 11.3632 14.626 10.3046 14.9825 9.13825C14.0248 9.58232 12.9819 9.81241 11.9262 9.8125Z" fill="#666666"/>
</svg>
